<svg width="256" height="256" xmlns="http://www.w3.org/2000/svg" xmlns:xlink="http://www.w3.org/1999/xlink" fill="none">
  <defs>
    <linearGradient id="svg_8">
      <stop stop-color="#0052cc" offset="0.18"/>
      <stop stop-color="#2684ff" offset="1"/>
    </linearGradient>
    <linearGradient id="svg_7" x1="98.031%" x2="58.888%" y1=".161%" y2="40.766%" href="#svg_8"/>
    <linearGradient id="svg_6" x1="100.665%" x2="55.402%" y1=".455%" y2="44.727%" href="#svg_8"/>
  </defs>
  <g>
    <title>Layer 1</title>
    <rect id="svg_1" rx="60" fill="#F4F2ED" height="256" width="256"/>
    <g stroke="null">
      <path stroke="null" fill="#2684ff" d="m210.00375,42.338l-88.27948,0a39.85073,39.85073 0 0 0 39.85073,39.85073l16.2621,0l0,15.70134c0.01436,21.98891 17.83597,39.81124 39.82489,39.8256l0,-87.71943c0,-4.22833 -3.42776,-7.65825 -7.65825,-7.65825z"/>
      <path stroke="null" fill="url(#svg_7)" d="m166.32318,86.32444l-88.27876,0c0.01364,21.98891 17.83525,39.81124 39.82489,39.8256l16.2621,0l0,15.7516c0.028,21.98891 17.86182,39.79904 39.85073,39.79904l0,-87.71656c0,-4.22977 -3.42919,-7.65896 -7.65896,-7.65896l0,-0.00072z"/>
      <path stroke="null" fill="url(#svg_6)" d="m122.61747,130.28576l-88.27948,0c0,22.00902 17.84243,39.85073 39.85073,39.85073l16.31308,0l0,15.70062c0.01436,21.96881 17.8051,39.78324 39.77462,39.82489l0,-87.71728c0,-4.22977 -3.42919,-7.65896 -7.65896,-7.65896z"/>
    </g>
  </g>
</svg>
