<?xml version="1.0" encoding="UTF-8"?>
<svg xmlns="http://www.w3.org/2000/svg" xmlns:xlink="http://www.w3.org/1999/xlink" width="256px" height="256px" viewBox="0 0 256 256" version="1.1">
<g id="surface1">
<path style=" stroke:none;fill-rule:nonzero;fill:rgb(100%,100%,100%);fill-opacity:1;" d="M 162.371094 256.238281 C 108.253906 256.238281 54.253906 256.238281 0.246094 256.238281 C 0.246094 170.917969 0.246094 85.601562 0.246094 0.261719 C 85.542969 0.261719 170.851562 0.261719 256.199219 0.261719 C 256.199219 85.570312 256.199219 170.902344 256.199219 256.238281 C 224.980469 256.238281 193.734375 256.238281 162.371094 256.238281 M 70.503906 91.808594 C 68.550781 91.628906 66.597656 91.308594 64.640625 91.296875 C 55.242188 91.242188 45.84375 91.273438 36.445312 91.273438 C 36.0625 91.273438 35.675781 91.273438 35.265625 91.273438 C 35.265625 114.695312 35.265625 138.011719 35.265625 161.308594 C 41.210938 161.308594 47.0625 161.308594 53.019531 161.308594 C 53.019531 153.261719 53.019531 145.308594 53.019531 137.253906 C 56.75 137.253906 60.375 137.316406 64 137.234375 C 66.390625 137.183594 68.792969 137.03125 71.167969 136.726562 C 72.453125 136.558594 74.054688 136.574219 74.488281 134.960938 C 74.5625 135.777344 74.636719 136.597656 74.714844 137.414062 C 75.167969 142.285156 75.636719 147.15625 76.074219 152.027344 C 76.507812 156.824219 76.90625 161.621094 77.332031 166.417969 C 77.785156 171.496094 78.289062 176.574219 78.691406 181.65625 C 78.761719 182.554688 79.035156 182.964844 79.894531 183.195312 C 83.972656 184.292969 88.035156 185.425781 92.097656 186.578125 C 103.644531 189.859375 115.191406 193.136719 126.726562 196.464844 C 128.214844 196.890625 129.574219 196.839844 131.046875 196.402344 C 137.421875 194.503906 143.8125 192.671875 150.207031 190.835938 C 159.160156 188.269531 168.125 185.726562 177.074219 183.128906 C 177.449219 183.019531 177.917969 182.480469 177.960938 182.097656 C 178.269531 179.25 178.476562 176.386719 178.722656 173.53125 C 178.992188 170.367188 179.273438 167.199219 179.539062 164.035156 C 179.84375 160.359375 180.136719 156.6875 180.53125 152.867188 C 180.660156 152.796875 180.789062 152.667969 180.917969 152.667969 C 186.171875 152.65625 191.425781 152.640625 196.675781 152.691406 C 196.984375 152.691406 197.445312 153.148438 197.570312 153.488281 C 198.828125 156.855469 200.09375 160.21875 201.214844 163.628906 C 201.609375 164.832031 202.117188 165.222656 203.414062 165.203125 C 209.308594 165.117188 215.203125 165.164062 221.28125 165.164062 C 212.484375 141.804688 203.722656 118.539062 194.960938 95.269531 C 194.871094 95.332031 194.769531 95.363281 194.746094 95.425781 C 191.773438 102.914062 188.804688 110.40625 185.859375 117.902344 C 185.742188 118.195312 185.753906 118.605469 185.859375 118.910156 C 187.316406 123.039062 188.796875 127.15625 190.269531 131.28125 C 191.171875 133.808594 192.070312 136.339844 193.015625 138.996094 C 190.992188 138.996094 189.140625 139.015625 187.289062 138.992188 C 185.441406 138.972656 183.59375 138.910156 181.785156 138.660156 C 181.902344 137.214844 182.007812 135.765625 182.136719 134.320312 C 182.492188 130.332031 182.875 126.34375 183.21875 122.355469 C 183.566406 118.332031 183.863281 114.300781 184.210938 110.277344 C 184.582031 106.015625 185 101.757812 185.375 97.496094 C 185.648438 94.410156 185.878906 91.324219 186.152344 88.238281 C 186.65625 82.496094 187.1875 76.757812 187.6875 71.015625 C 187.96875 67.804688 188.210938 64.589844 188.480469 61.378906 C 188.53125 60.78125 188.617188 60.183594 188.6875 59.566406 C 148.285156 59.566406 108.09375 59.566406 67.75 59.566406 C 68.746094 70.394531 69.734375 81.128906 70.503906 91.808594 Z M 70.503906 91.808594 "/>
<path style=" stroke:none;fill-rule:nonzero;fill:rgb(0.784314%,59.215689%,99.215686%);fill-opacity:1;" d="M 180.4375 153.011719 C 180.136719 156.6875 179.84375 160.359375 179.539062 164.035156 C 179.273438 167.199219 178.992188 170.367188 178.722656 173.53125 C 178.476562 176.386719 178.269531 179.25 177.960938 182.097656 C 177.917969 182.480469 177.449219 183.019531 177.074219 183.128906 C 168.125 185.726562 159.160156 188.269531 150.207031 190.835938 C 143.8125 192.671875 137.421875 194.503906 131.046875 196.402344 C 129.574219 196.839844 128.214844 196.890625 126.726562 196.464844 C 115.191406 193.136719 103.644531 189.859375 92.097656 186.578125 C 88.035156 185.425781 83.972656 184.292969 79.894531 183.195312 C 79.035156 182.964844 78.761719 182.554688 78.691406 181.65625 C 78.289062 176.574219 77.785156 171.496094 77.332031 166.417969 C 76.90625 161.621094 76.507812 156.824219 76.074219 152.027344 C 75.636719 147.15625 75.167969 142.285156 74.714844 137.414062 C 74.636719 136.597656 74.5625 135.777344 74.460938 134.773438 C 76.8125 127.1875 79.183594 119.789062 81.578125 112.394531 C 82.703125 108.921875 83.886719 105.464844 84.980469 101.980469 C 85.113281 101.5625 84.988281 100.917969 84.734375 100.554688 C 81.316406 95.65625 76.542969 92.910156 70.726562 91.863281 C 69.734375 81.128906 68.746094 70.394531 67.75 59.566406 C 108.09375 59.566406 148.285156 59.566406 188.6875 59.566406 C 188.617188 60.183594 188.53125 60.78125 188.480469 61.378906 C 188.210938 64.589844 187.96875 67.804688 187.6875 71.015625 C 187.1875 76.757812 186.65625 82.496094 186.152344 88.238281 C 185.878906 91.324219 185.648438 94.410156 185.375 97.496094 C 185 101.757812 184.582031 106.015625 184.210938 110.277344 C 183.863281 114.300781 183.566406 118.332031 183.21875 122.355469 C 182.875 126.34375 182.492188 130.332031 182.136719 134.320312 C 182.007812 135.765625 181.902344 137.214844 181.660156 138.785156 C 181.339844 138.917969 181.140625 138.964844 180.949219 138.9375 C 178.417969 138.539062 176.992188 139.375 176.226562 142.058594 C 175.308594 145.28125 173.777344 148.324219 172.503906 151.445312 C 172.164062 152.28125 172.304688 152.679688 173.332031 152.652344 C 175.371094 152.597656 177.414062 152.628906 179.457031 152.667969 C 179.785156 152.671875 180.109375 152.890625 180.4375 153.011719 M 173.492188 116.90625 C 176.914062 108.4375 180.332031 99.972656 183.875 91.203125 C 181.085938 91.203125 178.613281 91.203125 176.113281 91.042969 C 176.179688 90.15625 176.238281 89.269531 176.316406 88.382812 C 176.585938 85.261719 176.859375 82.144531 177.132812 79.023438 C 177.402344 75.953125 177.671875 72.878906 177.945312 69.773438 C 161.453125 69.773438 145.042969 69.773438 128.695312 69.773438 C 128.617188 70.167969 128.503906 70.464844 128.503906 70.761719 C 128.519531 75.242188 128.558594 79.71875 128.566406 84.199219 C 128.570312 86.496094 128.519531 88.796875 128.3125 91.171875 C 126.738281 91.207031 125.164062 91.257812 123.59375 91.273438 C 121.554688 91.289062 119.515625 91.277344 117.582031 91.277344 C 112.667969 106.320312 107.8125 121.167969 102.960938 136.015625 C 102.851562 136.03125 102.738281 136.046875 102.628906 136.058594 C 99.328125 129.480469 96.023438 122.902344 92.585938 116.054688 C 92.238281 116.722656 91.996094 117.078125 91.859375 117.46875 C 91.210938 119.359375 90.578125 121.253906 89.960938 123.15625 C 87.929688 129.425781 85.871094 135.6875 83.917969 141.980469 C 83.511719 143.28125 82.683594 144.5625 83.628906 146.117188 C 86.425781 150.714844 89.140625 155.359375 91.757812 160.058594 C 92.390625 161.191406 93.09375 161.414062 94.257812 161.402344 C 99.507812 161.351562 104.761719 161.402344 110.011719 161.359375 C 110.445312 161.355469 111.148438 161.03125 111.269531 160.691406 C 112.230469 158.003906 113.082031 155.277344 113.964844 152.5625 C 115.78125 147.003906 117.59375 141.445312 119.40625 135.886719 C 120.636719 132.117188 121.851562 128.339844 123.09375 124.570312 C 123.4375 123.527344 123.847656 122.507812 124.226562 121.476562 C 124.332031 121.480469 124.441406 121.484375 124.546875 121.488281 C 125.945312 126.015625 127.34375 130.546875 128.632812 135.175781 C 128.625 138.835938 128.601562 142.5 128.609375 146.160156 C 128.636719 156.125 128.679688 166.089844 128.707031 176.054688 C 128.71875 179.4375 128.710938 182.820312 128.710938 186.246094 C 129.09375 186.207031 129.332031 186.21875 129.546875 186.15625 C 132.976562 185.179688 136.402344 184.183594 139.835938 183.210938 C 144.199219 181.976562 148.570312 180.765625 152.941406 179.539062 C 155.011719 178.957031 157.078125 178.355469 159.152344 177.78125 C 162.011719 176.992188 164.890625 176.246094 167.734375 175.398438 C 168.078125 175.296875 168.464844 174.699219 168.503906 174.300781 C 168.988281 169.152344 169.390625 163.996094 169.863281 158.847656 C 170.183594 155.382812 170.605469 151.929688 170.9375 148.464844 C 171.457031 143.03125 171.953125 137.59375 172.4375 132.152344 C 172.777344 128.304688 173.09375 124.453125 173.386719 120.601562 C 173.472656 119.429688 173.453125 118.253906 173.492188 116.90625 Z M 173.492188 116.90625 "/>
<path style=" stroke:none;fill-rule:nonzero;fill:rgb(23.921569%,24.313726%,24.705882%);fill-opacity:1;" d="M 70.617188 91.835938 C 76.542969 92.910156 81.316406 95.65625 84.734375 100.554688 C 84.988281 100.917969 85.113281 101.5625 84.980469 101.980469 C 83.886719 105.464844 82.703125 108.921875 81.578125 112.394531 C 79.183594 119.789062 76.8125 127.1875 74.433594 134.671875 C 74.054688 136.574219 72.453125 136.558594 71.167969 136.726562 C 68.792969 137.03125 66.390625 137.183594 64 137.234375 C 60.375 137.316406 56.75 137.253906 53.019531 137.253906 C 53.019531 145.308594 53.019531 153.261719 53.019531 161.308594 C 47.0625 161.308594 41.210938 161.308594 35.265625 161.308594 C 35.265625 138.011719 35.265625 114.695312 35.265625 91.273438 C 35.675781 91.273438 36.0625 91.273438 36.445312 91.273438 C 45.84375 91.273438 55.242188 91.242188 64.640625 91.296875 C 66.597656 91.308594 68.550781 91.628906 70.617188 91.835938 M 62.238281 123.570312 C 63.773438 123.144531 65.445312 122.980469 66.8125 122.246094 C 69.644531 120.726562 70.503906 117.957031 70.726562 114.933594 C 71.0625 110.3125 68.882812 106.683594 64.902344 105.550781 C 61.019531 104.449219 57.03125 105.035156 53.039062 104.914062 C 53.039062 111.246094 53.039062 117.425781 53.039062 123.589844 C 56.058594 123.589844 59.042969 123.589844 62.238281 123.570312 Z M 62.238281 123.570312 "/>
<path style=" stroke:none;fill-rule:nonzero;fill:rgb(23.921569%,24.313726%,24.313726%);fill-opacity:1;" d="M 180.484375 152.941406 C 180.109375 152.890625 179.785156 152.671875 179.457031 152.667969 C 177.414062 152.628906 175.371094 152.597656 173.332031 152.652344 C 172.304688 152.679688 172.164062 152.28125 172.503906 151.445312 C 173.777344 148.324219 175.308594 145.28125 176.226562 142.058594 C 176.992188 139.375 178.417969 138.539062 180.949219 138.9375 C 181.140625 138.964844 181.339844 138.917969 181.640625 138.886719 C 183.59375 138.910156 185.441406 138.972656 187.289062 138.992188 C 189.140625 139.015625 190.992188 138.996094 193.015625 138.996094 C 192.070312 136.339844 191.171875 133.808594 190.269531 131.28125 C 188.796875 127.15625 187.316406 123.039062 185.859375 118.910156 C 185.753906 118.605469 185.742188 118.195312 185.859375 117.902344 C 188.804688 110.40625 191.773438 102.914062 194.746094 95.425781 C 194.769531 95.363281 194.871094 95.332031 194.960938 95.269531 C 203.722656 118.539062 212.484375 141.804688 221.28125 165.164062 C 215.203125 165.164062 209.308594 165.117188 203.414062 165.203125 C 202.117188 165.222656 201.609375 164.832031 201.214844 163.628906 C 200.09375 160.21875 198.828125 156.855469 197.570312 153.488281 C 197.445312 153.148438 196.984375 152.691406 196.675781 152.691406 C 191.425781 152.640625 186.171875 152.65625 180.917969 152.667969 C 180.789062 152.667969 180.660156 152.796875 180.484375 152.941406 Z M 180.484375 152.941406 "/>
<path style=" stroke:none;fill-rule:nonzero;fill:rgb(23.137255%,23.921569%,24.705882%);fill-opacity:1;" d="M 128.742188 135.074219 C 127.34375 130.546875 125.945312 126.015625 124.546875 121.488281 C 124.441406 121.484375 124.332031 121.480469 124.226562 121.476562 C 123.847656 122.507812 123.4375 123.527344 123.09375 124.570312 C 121.851562 128.339844 120.636719 132.117188 119.40625 135.886719 C 117.59375 141.445312 115.78125 147.003906 113.964844 152.5625 C 113.082031 155.277344 112.230469 158.003906 111.269531 160.691406 C 111.148438 161.03125 110.445312 161.355469 110.011719 161.359375 C 104.761719 161.402344 99.507812 161.351562 94.257812 161.402344 C 93.09375 161.414062 92.390625 161.191406 91.757812 160.058594 C 89.140625 155.359375 86.425781 150.714844 83.628906 146.117188 C 82.683594 144.5625 83.511719 143.28125 83.917969 141.980469 C 85.871094 135.6875 87.929688 129.425781 89.960938 123.15625 C 90.578125 121.253906 91.210938 119.359375 91.859375 117.46875 C 91.996094 117.078125 92.238281 116.722656 92.585938 116.054688 C 96.023438 122.902344 99.328125 129.480469 102.628906 136.058594 C 102.738281 136.046875 102.851562 136.03125 102.960938 136.015625 C 107.8125 121.167969 112.667969 106.320312 117.582031 91.277344 C 119.515625 91.277344 121.554688 91.289062 123.59375 91.273438 C 125.164062 91.257812 126.738281 91.207031 128.476562 91.191406 C 129.347656 91.234375 130.066406 91.335938 130.761719 91.253906 C 131.75 91.132812 132.125 91.566406 132.390625 92.460938 C 134.363281 99.097656 136.386719 105.714844 138.386719 112.339844 C 140.386719 118.976562 142.378906 125.613281 144.382812 132.246094 C 144.78125 133.550781 145.234375 134.839844 145.738281 136.375 C 146.136719 135.574219 146.445312 135.03125 146.6875 134.460938 C 149.734375 127.28125 152.761719 120.097656 155.808594 112.921875 C 158.71875 106.0625 161.652344 99.21875 164.550781 92.355469 C 164.882812 91.578125 165.289062 91.234375 166.203125 91.25 C 169.515625 91.292969 172.828125 91.226562 176.144531 91.203125 C 178.613281 91.203125 181.085938 91.203125 183.875 91.203125 C 180.332031 99.972656 176.914062 108.4375 173.425781 117.050781 C 169.769531 126.089844 166.179688 134.988281 162.597656 143.886719 C 160.378906 149.410156 158.160156 154.933594 155.964844 160.46875 C 155.664062 161.21875 155.203125 161.414062 154.429688 161.410156 C 149.414062 161.382812 144.398438 161.40625 139.382812 161.402344 C 137.175781 161.402344 137.125 161.410156 136.457031 159.324219 C 134.945312 154.585938 133.503906 149.828125 132 145.085938 C 130.941406 141.742188 129.832031 138.410156 128.742188 135.074219 Z M 128.742188 135.074219 "/>
<path style=" stroke:none;fill-rule:nonzero;fill:rgb(28.627452%,71.764708%,99.607843%);fill-opacity:1;" d="M 176.128906 91.121094 C 172.828125 91.226562 169.515625 91.292969 166.203125 91.25 C 165.289062 91.234375 164.882812 91.578125 164.550781 92.355469 C 161.652344 99.21875 158.71875 106.0625 155.808594 112.921875 C 152.761719 120.097656 149.734375 127.28125 146.6875 134.460938 C 146.445312 135.03125 146.136719 135.574219 145.738281 136.375 C 145.234375 134.839844 144.78125 133.550781 144.382812 132.246094 C 142.378906 125.613281 140.386719 118.976562 138.386719 112.339844 C 136.386719 105.714844 134.363281 99.097656 132.390625 92.460938 C 132.125 91.566406 131.75 91.132812 130.761719 91.253906 C 130.066406 91.335938 129.347656 91.234375 128.566406 91.15625 C 128.519531 88.796875 128.570312 86.496094 128.566406 84.199219 C 128.558594 79.71875 128.519531 75.242188 128.503906 70.761719 C 128.503906 70.464844 128.617188 70.167969 128.695312 69.773438 C 145.042969 69.773438 161.453125 69.773438 177.945312 69.773438 C 177.671875 72.878906 177.402344 75.953125 177.132812 79.023438 C 176.859375 82.144531 176.585938 85.261719 176.316406 88.382812 C 176.238281 89.269531 176.179688 90.15625 176.128906 91.121094 Z M 176.128906 91.121094 "/>
<path style=" stroke:none;fill-rule:nonzero;fill:rgb(28.235295%,71.764708%,99.607843%);fill-opacity:1;" d="M 128.6875 135.125 C 129.832031 138.410156 130.941406 141.742188 132 145.085938 C 133.503906 149.828125 134.945312 154.585938 136.457031 159.324219 C 137.125 161.410156 137.175781 161.402344 139.382812 161.402344 C 144.398438 161.40625 149.414062 161.382812 154.429688 161.410156 C 155.203125 161.414062 155.664062 161.21875 155.964844 160.46875 C 158.160156 154.933594 160.378906 149.410156 162.597656 143.886719 C 166.179688 134.988281 169.769531 126.089844 173.421875 117.136719 C 173.453125 118.253906 173.472656 119.429688 173.386719 120.601562 C 173.09375 124.453125 172.777344 128.304688 172.4375 132.152344 C 171.953125 137.59375 171.457031 143.03125 170.9375 148.464844 C 170.605469 151.929688 170.183594 155.382812 169.863281 158.847656 C 169.390625 163.996094 168.988281 169.152344 168.503906 174.300781 C 168.464844 174.699219 168.078125 175.296875 167.734375 175.398438 C 164.890625 176.246094 162.011719 176.992188 159.152344 177.78125 C 157.078125 178.355469 155.011719 178.957031 152.941406 179.539062 C 148.570312 180.765625 144.199219 181.976562 139.835938 183.210938 C 136.402344 184.183594 132.976562 185.179688 129.546875 186.15625 C 129.332031 186.21875 129.09375 186.207031 128.710938 186.246094 C 128.710938 182.820312 128.71875 179.4375 128.707031 176.054688 C 128.679688 166.089844 128.636719 156.125 128.609375 146.160156 C 128.601562 142.5 128.625 138.835938 128.6875 135.125 Z M 128.6875 135.125 "/>
<path style=" stroke:none;fill-rule:nonzero;fill:rgb(99.607843%,100%,100%);fill-opacity:1;" d="M 62.128906 123.578125 C 59.042969 123.589844 56.058594 123.589844 53.039062 123.589844 C 53.039062 117.425781 53.039062 111.246094 53.039062 104.914062 C 57.03125 105.035156 61.019531 104.449219 64.902344 105.550781 C 68.882812 106.683594 71.0625 110.3125 70.726562 114.933594 C 70.503906 117.957031 69.644531 120.726562 66.8125 122.246094 C 65.445312 122.980469 63.773438 123.144531 62.128906 123.578125 Z M 62.128906 123.578125 "/>
</g>
</svg>
