<svg xmlns="http://www.w3.org/2000/svg" fill="none" viewBox="0 0 256 256" id="Msw-Icon--Streamline-Svg-Logos" height="256" width="256">
  <desc>
    Msw Icon Streamline Icon: https://streamlinehq.com
  </desc>
  <path fill="#70211d" d="M37.023199999999996 30.614666666666665c-11.320613333333334 9.192 -18.672853333333332 22.528533333333332 -20.237413333333333 37.3632L2.6666666666666665 202.36906666666667l0.07352 2.3133333333333335 0.036853333333333335 0.7778666666666667c0.5324533333333332 8.458666666666666 4.13352 16.32293333333333 10.00224 22.20773333333333 6.383173333333333 6.4008 15.070319999999999 10.082933333333333 24.273786666666666 10.075199999999999l131.82666666666665 -0.10773333333333332 1.3792 -0.020266666666666665c13.432266666666665 -0.44133333333333336 25.90133333333333 -5.483466666666666 35.59973333333333 -14.254133333333332 11.0376 -9.981866666666665 17.469866666666665 -23.78986666666667 18.23173333333333 -38.39093333333333 0.7618666666666667 -14.601066666666664 -4.198133333333333 -29.008533333333332 -14.136533333333333 -40.09466666666667L112.92853333333332 36.64586666666666l-0.9368 -1.0165333333333333c-9.306666666666667 -9.738159999999999 -21.375999999999998 -15.68112 -34.35386666666666 -17.061866666666667 -14.769866666666667 -1.5714133333333333 -29.294133333333335 2.855093333333333 -40.614666666666665 12.047199999999998Zm35.38346666666666 37.5544c1.3296 0.1413333333333333 2.5666666666666664 0.7504 3.491733333333333 1.7178666666666667l97.14986666666665 108.36426666666667c1.0346666666666666 1.1541333333333332 1.5279999999999998 2.5871999999999997 1.4485333333333332 4.108533333333333 -0.07946666666666666 1.5213333333333332 -0.7192 2.8946666666666663 -1.8682666666666665 3.933866666666667 -0.9935999999999999 0.8986666666666667 -2.271733333333333 1.4154666666666667 -3.6064 1.4597333333333333l-114.89599999999999 0.09599999999999999 12.045866666666665 -114.62719999999999c0.16186666666666666 -1.5344 0.8933333333333333 -2.8608 2.0728 -3.818666666666666 1.1794666666666667 -0.9575999999999999 2.6242666666666663 -1.3981333333333332 4.161866666666667 -1.2344Z" stroke-width="2.6667"></path>
  <path fill="#ed7344" d="m218.80559999999997 2.6666666666666665 -181.6648 0.14866666666666667 -1.4784 0.03701333333333333 -0.832 0.04274666666666666c-7.6874666666666664 0.5251466666666667 -14.984559999999998 3.623973333333333 -20.719119999999997 8.810026666666666 -6.867866666666666 6.210933333333333 -10.88024 14.824399999999999 -11.354266666666668 23.909013333333334 -0.474032 9.084533333333333 2.6199466666666664 18.072 8.803786666666666 24.97013333333333l162.5285333333333 181.29653333333331 1.0154666666666667 1.0797333333333332 0.588 0.5928c5.528266666666667 5.3911999999999995 12.701066666666666 8.770133333333334 20.374666666666666 9.5864 9.190133333333332 0.9778666666666667 18.2504 -1.7834666666666665 25.293866666666666 -7.502666666666666 7.043733333333333 -5.719199999999999 11.629866666666667 -14.038666666666666 12.603466666666666 -23.269066666666664l19.369866666666667 -184.18293333333332 -0.07386666666666666 -2.3234666666666666 -0.0368 -0.7778666666666667c-0.5346666666666666 -8.49392 -4.150666666666666 -16.390586666666664 -10.043733333333332 -22.29992C236.7704 6.3564799999999995 228.0472 2.6591359999999997 218.80559999999997 2.6666666666666665Zm-16.922666666666665 49.88613333333333 -13.725333333333333 130.4837333333333L71.28533333333333 52.65893333333333l130.5976 -0.10613333333333333Z" stroke-width="2.6667"></path>
</svg>